PathFileType	4	(X/Y/Z)	E:\Qualisys_Data\Carbon_Farble_Plate\Data\Amateur_Runner\S14\T2\S14T2V26_c3d.trc
DataRate	CameraRate	NumFrames	NumMarkers	Units	OrigDataRate	OrigDataStartFrame	OrigNumFrames
200.000000	200.000000	4	39	mm	200.000000	37	296
Frame#	Time	LSHO			RSHO			LICST			RICST			LASIS			LHEEL			RASIS			LTROC			RTROC			SACR			LTH1			LSK4			LTH2			LTH3			RHM5			LSK2			LTH4			RTH1			LTOE			RTH2			RTH3			RTH4			LLEP			RLEP			LSK1			LSK3			RSK1			LHM5			RSK2			LFT1			RSK3			RSK4			LLME			RLME			RTOE			RHEEL			RFT1			RFT2			LFT2			
		X1	Y1	Z1	X2	Y2	Z2	X3	Y3	Z3	X4	Y4	Z4	X5	Y5	Z5	X6	Y6	Z6	X7	Y7	Z7	X8	Y8	Z8	X9	Y9	Z9	X10	Y10	Z10	X11	Y11	Z11	X12	Y12	Z12	X13	Y13	Z13	X14	Y14	Z14	X15	Y15	Z15	X16	Y16	Z16	X17	Y17	Z17	X18	Y18	Z18	X19	Y19	Z19	X20	Y20	Z20	X21	Y21	Z21	X22	Y22	Z22	X23	Y23	Z23	X24	Y24	Z24	X25	Y25	Z25	X26	Y26	Z26	X27	Y27	Z27	X28	Y28	Z28	X29	Y29	Z29	X30	Y30	Z30	X31	Y31	Z31	X32	Y32	Z32	X33	Y33	Z33	X34	Y34	Z34	X35	Y35	Z35	X36	Y36	Z36	X37	Y37	Z37	X38	Y38	Z38	X39	Y39	Z39	

38	0.185	-1989.52685546875	1389.759399414062	-497.6112976074219	-1961.568725585938	1368.363159179688	-194.2280731201172	-2039.335571289062	931.5075073242188	-499.5774841308594	-2025.987670898438	946.7183227539062	-217.7985992431641	-1996.87060546875	882.9237670898438	-473.2995910644531	-2291.527099609375	520.9358520507812	-386.2505798339844	-1999.859619140625	907.0888671875	-236.970458984375	-2124.406982421875	805.689453125	-510.899658203125	-2139.4658203125	834.5068969726562	-187.0759735107422	-2171.272216796875	944.232421875	-368.1817626953125	-1950.162475585938	627.6190795898438	-522.5184326171875	-2100.35693359375	504.3409118652344	-473.0932312011719	-2014.86767578125	590.9053955078125	-497.2809143066406	-1894.099609375	545.1432495117188	-505.4695129394531	-2136.10302734375	76.93628692626953	-205.1185760498047	-2005.104248046875	507.7764892578125	-499.1792602539062	-1962.529907226562	515.6421508789062	-480.7896728515625	-1982.189086914062	622.5748901367188	-181.0088958740234	-2311.525390625	261.6935729980469	-408.6177368164062	-2060.22265625	616.467041015625	-179.4034729003906	-1969.257934570312	526.627685546875	-212.1944885253906	-2051.967529296875	517.0934448242188	-201.9903564453125	-1926.835693359375	478.4599914550781	-499.259033203125	-2020.690307617188	449.890625	-211.8476867675781	-1996.613159179688	427.2416076660156	-485.1542358398438	-2096.605712890625	423.8666076660156	-464.8321228027344	-2046.968627929688	327.8741149902344	-213.5608520507812	-2326.260009765625	330.7029724121094	-473.3395080566406	-2121.512939453125	368.6052856445312	-205.1773986816406	-2320.535400390625	512.0987548828125	-363.5483703613281	-2103.242431640625	242.8173065185547	-234.4138336181641	-2168.97509765625	286.5050964355469	-222.9207000732422	-2264.745361328125	462.097412109375	-449.3310852050781	-2239.03076171875	134.4259643554688	-250.7186584472656	-2052.13525390625	73.60054779052734	-261.1226806640625	-2303.869384765625	115.1474914550781	-310.7633361816406	-2293.7314453125	78.8185806274414	-331.8414001464844	-2312.159912109375	92.285400390625	-279.5601196289062	-2321.839111328125	518.701904296875	-421.2684936523438
39	0.19	-1972.179321289062	1391.908935546875	-497.4956665039062	-1938.892700195312	1370.255004882812	-195.5389556884766	-2018.543090820312	933.7943115234376	-499.0932006835938	-2006.151123046875	948.24658203125	-217.7019500732422	-1976.672241210938	885.054443359375	-472.9666442871094	-2271.25634765625	516.3121337890625	-388.4518432617188	-1978.757568359375	909.4552612304688	-237.0309143066406	-2103.456787109375	808.060546875	-511.41796875	-2121.48828125	835.7706909179688	-187.9442596435547	-2151.143310546875	945.9630126953124	-368.4105529785156	-1924.352905273438	633.7897338867188	-522.0092163085938	-2070.790283203125	504.5223693847656	-472.8543090820312	-1989.00732421875	595.03662109375	-496.3877563476562	-1865.721923828125	553.105712890625	-504.2870483398438	-2135.75439453125	77.01365661621094	-204.8640289306641	-1975.051879882812	511.4101867675781	-498.3572692871094	-1933.106201171875	521.556640625	-479.9508972167969	-1970.636596679688	620.1304931640625	-181.4678802490234	-2269.136474609375	253.5625610351562	-409.5270690917969	-2048.19921875	616.9303588867188	-179.3692932128906	-1959.59130859375	524.50732421875	-211.5613555908203	-2043.2490234375	517.15673828125	-201.9217834472656	-1896.90087890625	485.6168823242188	-498.5977478027344	-2014.82421875	448.5725708007812	-210.9641418457031	-1963.39697265625	431.3104553222656	-484.04833984375	-2063.86669921875	423.9891967773438	-464.4319763183594	-2042.763305664062	326.782958984375	-213.7189025878906	-2288.458740234375	321.149169921875	-473.8059692382812	-2120.70068359375	368.6957397460938	-206.0713348388672	-2295.18994140625	502.0662231445312	-366.7640075683594	-2100.9951171875	243.3638000488281	-234.0417785644531	-2165.051025390625	287.8641357421875	-222.8438568115234	-2233.343505859375	454.8406372070312	-448.7925415039062	-2238.6279296875	136.9728088378906	-250.853515625	-2051.941650390625	73.47659301757812	-261.1254272460938	-2303.319580078125	116.9105606079102	-310.0537719726562	-2293.125732421875	80.68345642089844	-331.9215393066406	-2311.103759765625	93.70726776123048	-279.4054565429688	-2293.1337890625	508.7009582519531	-420.3691101074219
40	0.195	-1955.071899414062	1394.653076171875	-497.6456909179688	-1915.829711914062	1373.043090820312	-196.7596588134766	-1997.65576171875	936.1091918945312	-498.6995849609375	-1984.338012695312	951.4630737304688	-218.4591827392578	-1955.476806640625	887.5748901367188	-472.2705688476562	-2241.29052734375	505.8822631835938	-386.2196350097656	-1958.567016601562	909.869384765625	-236.6322784423828	-2081.943115234375	810.81494140625	-511.8656005859375	-2102.32421875	837.648681640625	-188.09423828125	-2130.52685546875	948.3901977539062	-368.0307312011719	-1900.188598632812	639.9953002929688	-521.6865844726562	-2041.838623046875	504.8032531738281	-472.5977172851562	-1962.733764648438	599.3591918945312	-495.5735168457031	-1838.480590820312	561.9308471679688	-503.8211059570312	-2136.038330078125	76.93295288085938	-204.8322906494141	-1946.533447265625	516.2189331054688	-497.5745544433594	-1904.9013671875	527.098388671875	-478.229736328125	-1958.295288085938	618.3521118164062	-181.6775817871094	-2222.1689453125	245.0265655517578	-410.9241333007812	-2035.4970703125	618.2034301757812	-179.5852661132812	-1951.593505859375	522.51611328125	-212.1680908203125	-2034.072631835938	518.0497436523438	-201.6481170654297	-1866.30322265625	492.8385314941406	-498.7470397949219	-2009.2314453125	448.3480529785156	-210.9222259521484	-1932.026489257812	436.3282775878906	-483.6744995117188	-2030.976318359375	424.7201232910156	-464.1192321777344	-2038.953002929688	327.1644592285156	-212.9668731689453	-2250.163330078125	311.6884460449219	-474.2834167480469	-2111.5849609375	370.0268249511719	-207.017822265625	-2267.04248046875	491.8072204589844	-366.1487121582031	-2098.118408203125	244.6889801025391	-233.5140380859375	-2161.580810546875	289.6391296386719	-222.23095703125	-2202.695556640625	448.0270690917969	-448.7709350585938	-2237.868408203125	139.2615661621094	-250.5198059082031	-2051.861572265625	73.46037292480469	-261.11181640625	-2302.822265625	120.1044845581055	-310.3888549804688	-2292.427734375	83.13017272949219	-331.7705993652344	-2310.812744140625	96.0851593017578	-279.6263732910156	-2265.47705078125	498.7212829589844	-420.6699829101562
41	0.2	-1937.541381835938	1397.43212890625	-497.5699462890625	-1892.5791015625	1375.921630859375	-198.0119323730469	-1977.861938476562	938.669189453125	-497.4803466796875	-1965.11083984375	952.1771850585938	-217.1011047363281	-1934.40673828125	890.3346557617188	-472.0914001464844	-2212.073486328125	495.4517822265625	-386.2722778320312	-1937.669189453125	911.540771484375	-236.0717163085938	-2059.27099609375	812.9544677734375	-512.170654296875	-2083.93798828125	840.47509765625	-189.0253753662109	-2109.451904296875	950.9664306640624	-367.9422302246094	-1875.28271484375	646.0704956054688	-520.947998046875	-2012.785766601562	504.2027282714844	-472.2273864746094	-1937.135375976562	604.2989501953125	-494.2503356933594	-1811.3037109375	570.4287719726562	-503.1640014648438	-2135.21875	76.99663543701172	-204.5761871337891	-1918.547485351562	520.74609375	-496.2251281738281	-1876.952270507812	533.6932983398438	-478.0585327148438	-1946.32080078125	616.8277587890625	-181.7044372558594	-2184.912841796875	236.5360260009766	-410.5334777832031	-2023.491088867188	619.6752319335938	-179.7614440917969	-1942.969604492188	520.7867431640625	-212.2648468017578	-2025.988647460938	518.8770751953125	-202.5658569335938	-1837.161865234375	499.5145263671875	-496.6090393066406	-2003.5087890625	448.029052734375	-211.4666595458984	-1900.483032226562	441.3608703613281	-483.1032409667969	-1999.300659179688	424.9575805664062	-464.1864929199219	-2035.160278320312	328.6029357910156	-213.2715759277344	-2212.091796875	301.5793151855469	-474.3374938964844	-2108.8193359375	372.5418090820312	-206.7067718505859	-2238.348876953125	481.4854431152344	-365.5667114257812	-2096.278564453125	246.3188171386719	-233.5231475830078	-2158.7451171875	292.2384948730469	-222.1799468994141	-2171.7490234375	440.5765991210938	-448.7736511230469	-2236.279052734375	141.9343566894531	-250.1167144775391	-2051.702392578125	73.42273712158203	-261.0575256347656	-2301.79541015625	121.8959579467773	-310.4078979492188	-2292.01708984375	86.28633117675781	-331.8294677734375	-2310.147216796875	98.89496612548828	-279.7636413574219	-2237.18994140625	487.5602416992188	-419.9125061035156
